<svg width="3000" height="3000" viewBox="0 0 3000 3000" fill="none" xmlns="http://www.w3.org/2000/svg">
<g clip-path="url(#clip0)">
<line x1="661.754" y1="2706.82" x2="2338.25" y2="2706.82" stroke="#FF0000" stroke-width="5.51478"/>
<g filter="url(#filter0_di)">
<path d="M1500.92 290.424L2332.73 1731.16H669.109L1500.92 290.424Z" fill="#FF0000"/>
</g>
<path d="M498.291 2389.96C498.291 2386.37 496.927 2383.59 494.198 2381.63C491.518 2379.62 486.802 2377.89 480.052 2376.46C473.35 2375.02 468.013 2373.3 464.039 2371.29C460.114 2369.28 457.194 2366.88 455.279 2364.11C453.412 2361.33 452.479 2358.03 452.479 2354.2C452.479 2347.83 455.159 2342.45 460.521 2338.04C465.93 2333.64 472.824 2331.44 481.201 2331.44C490.01 2331.44 497.143 2333.71 502.6 2338.26C508.105 2342.8 510.858 2348.62 510.858 2355.71H497.502C497.502 2352.07 495.946 2348.93 492.834 2346.3C489.77 2343.67 485.893 2342.35 481.201 2342.35C476.366 2342.35 472.585 2343.4 469.856 2345.51C467.127 2347.62 465.763 2350.37 465.763 2353.77C465.763 2356.97 467.031 2359.39 469.569 2361.02C472.106 2362.65 476.678 2364.2 483.284 2365.69C489.938 2367.17 495.323 2368.94 499.44 2371C503.557 2373.06 506.597 2375.55 508.56 2378.47C510.57 2381.34 511.576 2384.86 511.576 2389.02C511.576 2395.97 508.799 2401.54 503.246 2405.76C497.693 2409.92 490.488 2412 481.632 2412C475.409 2412 469.904 2410.9 465.117 2408.7C460.329 2406.5 456.572 2403.43 453.843 2399.51C451.162 2395.54 449.822 2391.25 449.822 2386.66H463.106C463.345 2391.11 465.117 2394.65 468.42 2397.28C471.771 2399.87 476.175 2401.16 481.632 2401.16C486.659 2401.16 490.68 2400.15 493.696 2398.14C496.76 2396.09 498.291 2393.36 498.291 2389.96ZM995.484 2391.11L1013.58 2332.87H1027.8L996.561 2422.56C991.726 2435.48 984.042 2441.95 973.511 2441.95L970.997 2441.73L966.043 2440.8V2430.03L969.633 2430.31C974.133 2430.31 977.628 2429.4 980.117 2427.59C982.654 2425.77 984.736 2422.44 986.364 2417.6L989.308 2409.71L961.591 2332.87H976.096L995.484 2391.11ZM1493.47 2332.87L1493.9 2342.64C1499.83 2335.17 1507.59 2331.44 1517.16 2331.44C1533.58 2331.44 1541.86 2340.7 1542.01 2359.22V2410.57H1528.72V2359.15C1528.67 2353.55 1527.38 2349.41 1524.85 2346.73C1522.36 2344.05 1518.45 2342.71 1513.14 2342.71C1508.83 2342.71 1505.05 2343.86 1501.8 2346.16C1498.54 2348.45 1496 2351.47 1494.18 2355.2V2410.57H1480.9V2332.87H1493.47ZM1999.99 2371.07C1999.99 2359.15 2002.82 2349.58 2008.47 2342.35C2014.11 2335.07 2021.51 2331.44 2030.65 2331.44C2039.75 2331.44 2046.95 2334.55 2052.27 2340.77V2300.27H2065.55V2410.57H2053.35L2052.7 2402.24C2047.39 2408.75 2039.99 2412 2030.51 2412C2021.51 2412 2014.16 2408.32 2008.47 2400.94C2002.82 2393.57 1999.99 2383.95 1999.99 2372.08V2371.07ZM2013.28 2372.58C2013.28 2381.39 2015.1 2388.28 2018.73 2393.26C2022.37 2398.24 2027.4 2400.73 2033.81 2400.73C2042.24 2400.73 2048.39 2396.95 2052.27 2389.38V2353.7C2048.29 2346.37 2042.19 2342.71 2033.96 2342.71C2027.45 2342.71 2022.37 2345.22 2018.73 2350.25C2015.1 2355.28 2013.28 2362.72 2013.28 2372.58ZM2527.7 2403.6C2527.7 2401.3 2528.37 2399.39 2529.71 2397.86C2531.1 2396.33 2533.16 2395.56 2535.89 2395.56C2538.62 2395.56 2540.68 2396.33 2542.06 2397.86C2543.5 2399.39 2544.22 2401.3 2544.22 2403.6C2544.22 2405.8 2543.5 2407.65 2542.06 2409.13C2540.68 2410.61 2538.62 2411.36 2535.89 2411.36C2533.16 2411.36 2531.1 2410.61 2529.71 2409.13C2528.37 2407.65 2527.7 2405.8 2527.7 2403.6Z" fill="#FF0000"/>
</g>
<defs>
<filter id="filter0_di" x="283.075" y="-91.934" width="2398.92" height="2176.04" filterUnits="userSpaceOnUse" color-interpolation-filters="sRGB">
<feFlood flood-opacity="0" result="BackgroundImageFix"/>
<feColorMatrix in="SourceAlpha" type="matrix" values="0 0 0 0 0 0 0 0 0 0 0 0 0 0 0 0 0 0 127 0" result="hardAlpha"/>
<feOffset dx="-18.3826" dy="-14.7061"/>
<feGaussianBlur stdDeviation="183.826"/>
<feColorMatrix type="matrix" values="0 0 0 0 1 0 0 0 0 0 0 0 0 0 0 0 0 0 0.3 0"/>
<feBlend mode="normal" in2="BackgroundImageFix" result="effect1_dropShadow"/>
<feBlend mode="normal" in="SourceGraphic" in2="effect1_dropShadow" result="shape"/>
<feColorMatrix in="SourceAlpha" type="matrix" values="0 0 0 0 0 0 0 0 0 0 0 0 0 0 0 0 0 0 127 0" result="hardAlpha"/>
<feOffset dx="55.1478" dy="55.1478"/>
<feGaussianBlur stdDeviation="137.87"/>
<feComposite in2="hardAlpha" operator="arithmetic" k2="-1" k3="1"/>
<feColorMatrix type="matrix" values="0 0 0 0 0 0 0 0 0 0 0 0 0 0 0 0 0 0 0.5 0"/>
<feBlend mode="normal" in2="shape" result="effect2_innerShadow"/>
</filter>
<clipPath id="clip0">
<rect width="3000" height="3000" fill="white"/>
</clipPath>
</defs>
</svg>
